<?xml version="1.0" encoding="utf-8"?>
<!-- Generator: Adobe Illustrator 24.3.0, SVG Export Plug-In . SVG Version: 6.00 Build 0)  -->
<svg version="1.1" id="Livello_1" xmlns="http://www.w3.org/2000/svg" xmlns:xlink="http://www.w3.org/1999/xlink" x="0px" y="0px"
	 viewBox="0 0 24 24" style="enable-background:new 0 0 24 24;" xml:space="preserve">
<style type="text/css">
	.st0{fill:#F59999;}
	.st1{fill-opacity:0;}
</style>
<g>
	<path class="st0" d="M23.2,8.7c1.4,3.7,1.1,7.2-1,10.1s-5.8,5.2-10,5.1C8,24,3.3,21.7,1.7,18.4C0.1,15.2,1.6,11,4.4,7.3
		c2.8-3.6,6.8-6.7,10.4-6.4C18.5,1.3,21.8,5.1,23.2,8.7z"/>
</g>
<g>
	<g>
		<rect class="st1" width="24" height="24"/>
		<path d="M19,20H5c-0.6,0-1,0.4-1,1s0.4,1,1,1h14c0.6,0,1-0.4,1-1S19.6,20,19,20z"/>
		<path d="M5,18L5,18l4.3-0.4c0.5,0,0.9-0.2,1.2-0.6l9-9c0.7-0.8,0.7-2-0.1-2.7l-2.7-2.7c-0.7-0.7-1.9-0.7-2.7-0.1l-9,9
			c-0.3,0.3-0.5,0.8-0.6,1.2L4,16.9c0,0.3,0.1,0.6,0.3,0.8C4.5,17.9,4.7,18,5,18z M15.3,4L18,6.7l-2,2L13.3,6L15.3,4z M6.4,12.9
			L12,7.3l2.7,2.7l-5.6,5.6l-3,0.3L6.4,12.9z"/>
	</g>
</g>
</svg>
